<svg width="130" height="33" viewBox="0 0 130 33" fill="none" xmlns="http://www.w3.org/2000/svg">
<circle cx="10.6398" cy="11.6398" r="10.6398" fill="url(#paint0_linear_51_1068)"/>
<mask id="mask0_51_1068" style="mask-type:alpha" maskUnits="userSpaceOnUse" x="0" y="1" width="22" height="22">
<circle cx="10.6398" cy="11.6398" r="10.6398" fill="#D9D9D9"/>
</mask>
<g mask="url(#mask0_51_1068)">
<ellipse cx="3.02996" cy="18.642" rx="10.6398" ry="7.58955" transform="rotate(-35.51 3.02996 18.642)" fill="url(#paint1_linear_51_1068)"/>
<ellipse cx="14.3865" cy="20.8386" rx="10.6398" ry="7.58955" fill="url(#paint2_linear_51_1068)"/>
</g>
<path d="M58.072 21.056H49.112L46.328 27.744L42.936 26.336L52.28 3.808H54.904L64.248 26.336L60.856 27.744L58.072 21.056ZM50.648 17.376H56.536L53.592 10.24L50.648 17.376ZM73.3715 27.808C72.2515 27.808 71.2275 27.616 70.2675 27.2C69.3075 26.784 68.4435 26.208 67.7395 25.504C67.0355 24.8 66.4595 23.968 66.0435 23.008C65.6275 22.048 65.4355 20.992 65.4355 19.904C65.4355 18.816 65.6275 17.76 66.0435 16.8C66.4595 15.84 67.0355 14.976 67.7395 14.272C68.4435 13.568 69.3075 12.992 70.2675 12.576C71.2275 12.16 72.2515 11.968 73.3715 11.968C74.4595 11.968 75.4835 12.16 76.4435 12.576C77.4035 12.992 78.2355 13.568 78.9395 14.272C79.6435 14.976 80.2195 15.84 80.6355 16.8C81.0515 17.76 81.2755 18.816 81.2755 19.904C81.2755 20.992 81.0515 22.016 80.6355 22.976C80.2195 23.936 79.6435 24.8 78.9395 25.504C78.2355 26.208 77.4035 26.784 76.4435 27.2C75.4835 27.616 74.4595 27.808 73.3715 27.808ZM73.3715 15.648C72.7635 15.648 72.2195 15.744 71.7075 15.968C71.1955 16.192 70.7475 16.512 70.3635 16.896C69.9795 17.28 69.6595 17.728 69.4355 18.24C69.2115 18.752 69.1155 19.328 69.1155 19.904C69.1155 20.48 69.2115 21.024 69.4355 21.536C69.6595 22.048 69.9795 22.528 70.3635 22.912C70.7475 23.296 71.1955 23.584 71.7075 23.808C72.2195 24.032 72.7635 24.16 73.3715 24.16C73.9475 24.16 74.4915 24.032 75.0035 23.808C75.5155 23.584 75.9635 23.296 76.3475 22.912C76.7315 22.528 77.0195 22.048 77.2435 21.536C77.4675 21.024 77.5955 20.48 77.5955 19.904C77.5955 19.328 77.4675 18.752 77.2435 18.24C77.0195 17.728 76.7315 17.28 76.3475 16.896C75.9635 16.512 75.5155 16.192 75.0035 15.968C74.4915 15.744 73.9475 15.648 73.3715 15.648ZM84.8673 3.808H88.5153V27.552H84.8673V3.808ZM100.06 11.936C100.828 11.936 101.564 12.064 102.3 12.256C103.004 12.48 103.676 12.8 104.316 13.216V3.84H107.996V27.584H104.316V26.592C103.676 27.008 103.004 27.328 102.3 27.52C101.564 27.712 100.828 27.808 100.06 27.808C98.9718 27.808 97.9478 27.616 96.9878 27.2C96.0278 26.784 95.1638 26.208 94.4598 25.472C93.7238 24.768 93.1478 23.904 92.7318 22.944C92.3158 21.984 92.1238 20.96 92.1238 19.872C92.1238 18.784 92.3158 17.76 92.7318 16.8C93.1478 15.84 93.7238 15.008 94.4598 14.272C95.1638 13.568 96.0278 12.992 96.9878 12.576C97.9478 12.16 98.9718 11.936 100.06 11.936ZM95.8038 19.872C95.8038 20.448 95.8998 21.024 96.1238 21.536C96.3478 22.048 96.6678 22.496 97.0518 22.88C97.4358 23.264 97.8838 23.584 98.3958 23.808C98.9078 24.032 99.4838 24.128 100.06 24.128C100.636 24.128 101.18 24.032 101.692 23.808C102.204 23.584 102.684 23.264 103.068 22.88C103.452 22.496 103.74 22.048 103.964 21.536C104.188 21.024 104.316 20.448 104.316 19.872C104.316 19.296 104.188 18.752 103.964 18.24C103.74 17.728 103.452 17.248 103.068 16.864C102.684 16.48 102.204 16.192 101.692 15.968C101.18 15.744 100.636 15.616 100.06 15.616C99.4838 15.616 98.9078 15.744 98.3958 15.968C97.8838 16.192 97.4358 16.48 97.0518 16.864C96.6678 17.248 96.3478 17.728 96.1238 18.24C95.8998 18.752 95.8038 19.296 95.8038 19.872ZM119.593 11.936C120.361 11.936 121.097 12.064 121.833 12.256C122.537 12.48 123.209 12.8 123.849 13.216V12.224H127.529V27.584H123.849V26.592C123.209 27.008 122.537 27.328 121.833 27.52C121.097 27.712 120.361 27.808 119.593 27.808C118.505 27.808 117.481 27.616 116.521 27.2C115.561 26.784 114.697 26.208 113.993 25.472C113.257 24.768 112.681 23.904 112.265 22.944C111.849 21.984 111.657 20.96 111.657 19.872C111.657 18.784 111.849 17.76 112.265 16.8C112.681 15.84 113.257 15.008 113.993 14.272C114.697 13.568 115.561 12.992 116.521 12.576C117.481 12.16 118.505 11.936 119.593 11.936ZM115.337 19.872C115.337 20.448 115.433 21.024 115.657 21.536C115.881 22.048 116.201 22.496 116.585 22.88C116.969 23.264 117.417 23.584 117.929 23.808C118.441 24.032 119.017 24.128 119.593 24.128C120.169 24.128 120.713 24.032 121.225 23.808C121.737 23.584 122.217 23.264 122.601 22.88C122.985 22.496 123.273 22.048 123.497 21.536C123.721 21.024 123.849 20.448 123.849 19.872C123.849 19.296 123.721 18.752 123.497 18.24C123.273 17.728 122.985 17.248 122.601 16.864C122.217 16.48 121.737 16.192 121.225 15.968C120.713 15.744 120.169 15.616 119.593 15.616C119.017 15.616 118.441 15.744 117.929 15.968C117.417 16.192 116.969 16.48 116.585 16.864C116.201 17.248 115.881 17.728 115.657 18.24C115.433 18.752 115.337 19.296 115.337 19.872Z" fill="white"/>
<defs>
<linearGradient id="paint0_linear_51_1068" x1="19.142" y1="18.1485" x2="3.36246" y2="4.1463" gradientUnits="userSpaceOnUse">
<stop stop-color="#206CA5"/>
<stop offset="1" stop-color="#0E76C4"/>
</linearGradient>
<linearGradient id="paint1_linear_51_1068" x1="5.02962" y1="13.1379" x2="2.21991" y2="23.8535" gradientUnits="userSpaceOnUse">
<stop stop-color="#58AEE5"/>
<stop offset="1" stop-color="white" stop-opacity="0"/>
</linearGradient>
<linearGradient id="paint2_linear_51_1068" x1="6.72493" y1="15.6818" x2="17.1089" y2="29.7569" gradientUnits="userSpaceOnUse">
<stop stop-color="#A7D7F0"/>
<stop offset="1" stop-color="white" stop-opacity="0"/>
</linearGradient>
</defs>
</svg>
