<svg width="99" height="25" viewBox="0 0 99 25" fill="none" xmlns="http://www.w3.org/2000/svg">
<circle cx="10.6398" cy="12.5" r="10.6398" fill="url(#paint0_linear_39_489)"/>
<mask id="mask0_39_489" style="mask-type:alpha" maskUnits="userSpaceOnUse" x="0" y="1" width="22" height="23">
<circle cx="10.6398" cy="12.5" r="10.6398" fill="#D9D9D9"/>
</mask>
<g mask="url(#mask0_39_489)">
<ellipse cx="3.02998" cy="19.5021" rx="10.6398" ry="7.58955" transform="rotate(-35.51 3.02998 19.5021)" fill="url(#paint1_linear_39_489)"/>
<ellipse cx="14.3865" cy="21.6987" rx="10.6398" ry="7.58955" fill="url(#paint2_linear_39_489)"/>
</g>
<path d="M44.5835 15.792H37.8635L35.7755 20.808L33.2315 19.752L40.2395 2.856H42.2075L49.2155 19.752L46.6715 20.808L44.5835 15.792ZM39.0155 13.032H43.4315L41.2235 7.68L39.0155 13.032ZM56.0582 20.856C55.2182 20.856 54.4502 20.712 53.7302 20.4C53.0102 20.088 52.3622 19.656 51.8342 19.128C51.3062 18.6 50.8742 17.976 50.5622 17.256C50.2502 16.536 50.1062 15.744 50.1062 14.928C50.1062 14.112 50.2502 13.32 50.5622 12.6C50.8742 11.88 51.3062 11.232 51.8342 10.704C52.3622 10.176 53.0102 9.744 53.7302 9.432C54.4502 9.12 55.2182 8.976 56.0582 8.976C56.8742 8.976 57.6422 9.12 58.3622 9.432C59.0822 9.744 59.7062 10.176 60.2342 10.704C60.7622 11.232 61.1942 11.88 61.5062 12.6C61.8182 13.32 61.9862 14.112 61.9862 14.928C61.9862 15.744 61.8182 16.512 61.5062 17.232C61.1942 17.952 60.7622 18.6 60.2342 19.128C59.7062 19.656 59.0822 20.088 58.3622 20.4C57.6422 20.712 56.8742 20.856 56.0582 20.856ZM56.0582 11.736C55.6022 11.736 55.1942 11.808 54.8102 11.976C54.4262 12.144 54.0902 12.384 53.8022 12.672C53.5142 12.96 53.2742 13.296 53.1062 13.68C52.9382 14.064 52.8662 14.496 52.8662 14.928C52.8662 15.36 52.9382 15.768 53.1062 16.152C53.2742 16.536 53.5142 16.896 53.8022 17.184C54.0902 17.472 54.4262 17.688 54.8102 17.856C55.1942 18.024 55.6022 18.12 56.0582 18.12C56.4902 18.12 56.8982 18.024 57.2822 17.856C57.6662 17.688 58.0022 17.472 58.2902 17.184C58.5782 16.896 58.7942 16.536 58.9622 16.152C59.1302 15.768 59.2262 15.36 59.2262 14.928C59.2262 14.496 59.1302 14.064 58.9622 13.68C58.7942 13.296 58.5782 12.96 58.2902 12.672C58.0022 12.384 57.6662 12.144 57.2822 11.976C56.8982 11.808 56.4902 11.736 56.0582 11.736ZM64.68 2.856H67.416V20.664H64.68V2.856ZM76.0744 8.952C76.6504 8.952 77.2024 9.048 77.7544 9.192C78.2824 9.36 78.7864 9.6 79.2664 9.912V2.88H82.0264V20.688H79.2664V19.944C78.7864 20.256 78.2824 20.496 77.7544 20.64C77.2024 20.784 76.6504 20.856 76.0744 20.856C75.2584 20.856 74.4904 20.712 73.7704 20.4C73.0504 20.088 72.4024 19.656 71.8744 19.104C71.3224 18.576 70.8904 17.928 70.5784 17.208C70.2664 16.488 70.1224 15.72 70.1224 14.904C70.1224 14.088 70.2664 13.32 70.5784 12.6C70.8904 11.88 71.3224 11.256 71.8744 10.704C72.4024 10.176 73.0504 9.744 73.7704 9.432C74.4904 9.12 75.2584 8.952 76.0744 8.952ZM72.8824 14.904C72.8824 15.336 72.9544 15.768 73.1224 16.152C73.2904 16.536 73.5304 16.872 73.8184 17.16C74.1064 17.448 74.4424 17.688 74.8264 17.856C75.2104 18.024 75.6424 18.096 76.0744 18.096C76.5064 18.096 76.9144 18.024 77.2984 17.856C77.6824 17.688 78.0424 17.448 78.3304 17.16C78.6184 16.872 78.8344 16.536 79.0024 16.152C79.1704 15.768 79.2664 15.336 79.2664 14.904C79.2664 14.472 79.1704 14.064 79.0024 13.68C78.8344 13.296 78.6184 12.936 78.3304 12.648C78.0424 12.36 77.6824 12.144 77.2984 11.976C76.9144 11.808 76.5064 11.712 76.0744 11.712C75.6424 11.712 75.2104 11.808 74.8264 11.976C74.4424 12.144 74.1064 12.36 73.8184 12.648C73.5304 12.936 73.2904 13.296 73.1224 13.68C72.9544 14.064 72.8824 14.472 72.8824 14.904ZM90.7239 8.952C91.2999 8.952 91.8519 9.048 92.4039 9.192C92.9319 9.36 93.4359 9.6 93.9159 9.912V9.168H96.6759V20.688H93.9159V19.944C93.4359 20.256 92.9319 20.496 92.4039 20.64C91.8519 20.784 91.2999 20.856 90.7239 20.856C89.9079 20.856 89.1399 20.712 88.4199 20.4C87.6999 20.088 87.0519 19.656 86.5239 19.104C85.9719 18.576 85.5399 17.928 85.2279 17.208C84.9159 16.488 84.7719 15.72 84.7719 14.904C84.7719 14.088 84.9159 13.32 85.2279 12.6C85.5399 11.88 85.9719 11.256 86.5239 10.704C87.0519 10.176 87.6999 9.744 88.4199 9.432C89.1399 9.12 89.9079 8.952 90.7239 8.952ZM87.5319 14.904C87.5319 15.336 87.6039 15.768 87.7719 16.152C87.9399 16.536 88.1799 16.872 88.4679 17.16C88.7559 17.448 89.0919 17.688 89.4759 17.856C89.8599 18.024 90.2919 18.096 90.7239 18.096C91.1559 18.096 91.5639 18.024 91.9479 17.856C92.3319 17.688 92.6919 17.448 92.9799 17.16C93.2679 16.872 93.4839 16.536 93.6519 16.152C93.8199 15.768 93.9159 15.336 93.9159 14.904C93.9159 14.472 93.8199 14.064 93.6519 13.68C93.4839 13.296 93.2679 12.936 92.9799 12.648C92.6919 12.36 92.3319 12.144 91.9479 11.976C91.5639 11.808 91.1559 11.712 90.7239 11.712C90.2919 11.712 89.8599 11.808 89.4759 11.976C89.0919 12.144 88.7559 12.36 88.4679 12.648C88.1799 12.936 87.9399 13.296 87.7719 13.68C87.6039 14.064 87.5319 14.472 87.5319 14.904Z" fill="#0E76C4"/>
<defs>
<linearGradient id="paint0_linear_39_489" x1="19.142" y1="19.0088" x2="3.36246" y2="5.00651" gradientUnits="userSpaceOnUse">
<stop stop-color="#206CA5"/>
<stop offset="1" stop-color="#0E76C4"/>
</linearGradient>
<linearGradient id="paint1_linear_39_489" x1="5.02965" y1="13.998" x2="2.21994" y2="24.7137" gradientUnits="userSpaceOnUse">
<stop stop-color="#58AEE5"/>
<stop offset="1" stop-color="white" stop-opacity="0"/>
</linearGradient>
<linearGradient id="paint2_linear_39_489" x1="6.72488" y1="16.5419" x2="17.1089" y2="30.617" gradientUnits="userSpaceOnUse">
<stop stop-color="#A7D7F0"/>
<stop offset="1" stop-color="white" stop-opacity="0"/>
</linearGradient>
</defs>
</svg>
